<svg xmlns="http://www.w3.org/2000/svg" width="358" height="58.184" viewBox="0 0 358 58.184"><defs><style>.a{fill:#487ca6;}.b{fill:#003477;}</style></defs><g transform="translate(-313 -79)"><path class="a" d="M558.344,388.394a6.782,6.782,0,1,1-6.782-6.783,6.782,6.782,0,0,1,6.782,6.783" transform="translate(-229.75 -300.648)"/><path class="a" d="M594.031,388.394a6.782,6.782,0,1,1-6.782-6.783,6.782,6.782,0,0,1,6.782,6.783" transform="translate(-224.742 -300.648)"/><path class="a" d="M594.031,388.394a6.782,6.782,0,1,1-6.782-6.783,6.782,6.782,0,0,1,6.782,6.783" transform="translate(-224.742 -300.648)"/><path class="a" d="M611.873,388.394a6.782,6.782,0,1,1-6.783-6.783,6.782,6.782,0,0,1,6.783,6.783" transform="translate(-222.237 -300.648)"/><path class="a" d="M647.558,388.394a6.782,6.782,0,1,1-6.782-6.783,6.782,6.782,0,0,1,6.782,6.783" transform="translate(-217.229 -300.648)"/><path class="a" d="M558.344,406.237a6.782,6.782,0,1,1-6.782-6.783,6.782,6.782,0,0,1,6.782,6.783" transform="translate(-229.75 -298.144)"/><path class="a" d="M629.717,406.237a6.782,6.782,0,1,1-6.783-6.783,6.782,6.782,0,0,1,6.783,6.783" transform="translate(-219.733 -298.144)"/><path class="a" d="M629.717,406.237a6.782,6.782,0,1,1-6.783-6.783,6.782,6.782,0,0,1,6.783,6.783" transform="translate(-219.733 -298.144)"/><path class="a" d="M647.558,406.237a6.782,6.782,0,1,1-6.782-6.783,6.781,6.781,0,0,1,6.782,6.783" transform="translate(-217.229 -298.144)"/><path class="a" d="M558.344,406.237a6.782,6.782,0,1,1-6.782-6.783,6.782,6.782,0,0,1,6.782,6.783" transform="translate(-229.75 -298.144)"/><path class="a" d="M629.717,406.237a6.782,6.782,0,1,1-6.783-6.783,6.782,6.782,0,0,1,6.783,6.783" transform="translate(-219.733 -298.144)"/><path class="a" d="M629.717,406.237a6.782,6.782,0,1,1-6.783-6.783,6.782,6.782,0,0,1,6.783,6.783" transform="translate(-219.733 -298.144)"/><path class="a" d="M647.558,406.237a6.782,6.782,0,1,1-6.782-6.783,6.781,6.781,0,0,1,6.782,6.783" transform="translate(-217.229 -298.144)"/><path class="a" d="M629.717,424.08a6.782,6.782,0,1,1-6.783-6.783,6.783,6.783,0,0,1,6.783,6.783" transform="translate(-219.733 -295.64)"/><path class="a" d="M629.717,424.08a6.782,6.782,0,1,1-6.783-6.783,6.783,6.783,0,0,1,6.783,6.783" transform="translate(-219.733 -295.64)"/><path class="a" d="M629.717,424.08a6.782,6.782,0,1,1-6.783-6.783,6.783,6.783,0,0,1,6.783,6.783" transform="translate(-219.733 -295.64)"/><path class="a" d="M629.717,424.08a6.782,6.782,0,1,1-6.783-6.783,6.783,6.783,0,0,1,6.783,6.783" transform="translate(-219.733 -295.64)"/><path class="b" d="M580.718,422.571a15.484,15.484,0,0,1-15.467,15.465l-20.333.024h0a1.914,1.914,0,1,1,0-3.828l20.337-.024a11.7,11.7,0,0,0,0-23.39h-1.761a1.931,1.931,0,0,1-1.01-.287c-.043-.029-.081-.058-.12-.087a1.258,1.258,0,0,1-.124-.1,1.349,1.349,0,0,1-.162-.162.8.8,0,0,1-.082-.1.927.927,0,0,1-.086-.115c-.034-.052-.067-.1-.1-.157a1.872,1.872,0,0,1-.22-.69,1.7,1.7,0,0,1-.015-.225,2.143,2.143,0,0,1,.033-.349l.03-.13a1.937,1.937,0,0,1,.383-.746c.038-.043.076-.087.119-.13a1.875,1.875,0,0,1,.775-.469c.052-.019.111-.033.168-.048l.181-.029c.015,0,.025,0,.039,0a11.636,11.636,0,0,0-1.436-23.184,1.915,1.915,0,0,1,0-3.829,15.467,15.467,0,0,1,8.983,28.062,15.606,15.606,0,0,1,9.867,14.524" transform="translate(-230 -300.876)"/><path class="b" d="M616.648,383.357a1.917,1.917,0,0,1-2.355,1.34,25.229,25.229,0,0,0-31.085,18.012,1.919,1.919,0,0,1-1.852,1.44,1.818,1.818,0,0,1-.479-.063,1.915,1.915,0,0,1-1.379-2.33A29.073,29.073,0,0,1,615.308,381a1.917,1.917,0,0,1,1.34,2.355" transform="translate(-224.886 -300.878)"/><path class="b" d="M615.308,432.86A29.071,29.071,0,0,1,579.5,412.1a1.914,1.914,0,1,1,3.708-.952,25.232,25.232,0,0,0,31.085,18.016,1.915,1.915,0,1,1,1.015,3.694" transform="translate(-224.886 -296.704)"/><path class="b" d="M633.181,405.581v27.11a1.914,1.914,0,0,1-3.828,0v-27.11a1.914,1.914,0,1,1,3.828,0" transform="translate(-217.88 -297.553)"/><path class="b" d="M652.341,381.8a1.917,1.917,0,0,1-1.915,1.915H616.307a1.914,1.914,0,1,1,0-3.828h34.119a1.917,1.917,0,0,1,1.915,1.914" transform="translate(-219.98 -300.89)"/><path class="b" d="M676.889,409.913a9.9,9.9,0,0,0,4.786-1.134,8.415,8.415,0,0,0,3.286-3.134,8.84,8.84,0,0,0,1.192-4.613,7.314,7.314,0,0,0-1.576-4.825,7.9,7.9,0,0,0-4.152-2.594,7.186,7.186,0,0,0,2.922-2.461,6.338,6.338,0,0,0,1.115-3.69,7.059,7.059,0,0,0-1.1-3.922,7.754,7.754,0,0,0-2.96-2.672,8.825,8.825,0,0,0-4.171-.98h-9.341a1.446,1.446,0,0,0-1.5,1.5v27.025a1.355,1.355,0,0,0,.48,1.1,1.819,1.819,0,0,0,1.211.4Zm-8.5-14.608h8.5a7.21,7.21,0,0,1,3.267.712,5.451,5.451,0,0,1,2.229,2,5.568,5.568,0,0,1,.807,3.018,6.085,6.085,0,0,1-.807,3.191,5.438,5.438,0,0,1-2.229,2.075,7.055,7.055,0,0,1-3.267.731h-8.5V395.305Zm0-12.533h7.842a5.933,5.933,0,0,1,3.806,1.192,4.2,4.2,0,0,1,1.5,3.5,4.587,4.587,0,0,1-1.5,3.651,5.579,5.579,0,0,1-3.806,1.308h-7.842v-9.65ZM694.9,409.51a1.48,1.48,0,0,0,.4-1.1V390.385a1.48,1.48,0,0,0-.4-1.1,1.43,1.43,0,0,0-1.057-.4,1.393,1.393,0,0,0-1.5,1.5v18.029a1.393,1.393,0,0,0,1.5,1.5,1.43,1.43,0,0,0,1.057-.4Zm.4-25.237a2.043,2.043,0,0,0,.615-1.5,1.919,1.919,0,0,0-.634-1.519,2.127,2.127,0,0,0-1.441-.557,2.176,2.176,0,0,0-1.48.557,1.92,1.92,0,0,0-.634,1.519,2.039,2.039,0,0,0,.615,1.5,1.993,1.993,0,0,0,1.461.615,2.039,2.039,0,0,0,1.5-.615Zm23.681,24.43a10.344,10.344,0,0,0,3.825-3.825,10.769,10.769,0,0,0,1.4-5.5,10.936,10.936,0,0,0-1.364-5.459,10.1,10.1,0,0,0-9.016-5.229,9.932,9.932,0,0,0-4.671,1.1,9.274,9.274,0,0,0-3.363,2.9v-11.3a1.479,1.479,0,0,0-.4-1.095,1.429,1.429,0,0,0-1.057-.4,1.393,1.393,0,0,0-1.5,1.5v18.145a10.775,10.775,0,0,0,1.441,5.4,10.276,10.276,0,0,0,3.805,3.787,10.629,10.629,0,0,0,5.4,1.384,10.758,10.758,0,0,0,5.5-1.4Zm-9.457-2.345a7.515,7.515,0,0,1-2.769-2.865,8.928,8.928,0,0,1,0-8.207,7.34,7.34,0,0,1,2.769-2.863,7.671,7.671,0,0,1,3.959-1.039,7.75,7.75,0,0,1,4,1.039,7.489,7.489,0,0,1,2.787,2.863,8.776,8.776,0,0,1,0,8.207,7.613,7.613,0,0,1-6.785,3.922,7.566,7.566,0,0,1-3.959-1.057Zm25.525,3.556a1.877,1.877,0,0,0,1.25-.4,1.313,1.313,0,0,0,.48-1.057,1.569,1.569,0,0,0-.346-1.057,1.153,1.153,0,0,0-.922-.4h-.961a1.987,1.987,0,0,1-1.71-1.038,4.863,4.863,0,0,1-.673-2.691V381.351a1.462,1.462,0,1,0-2.922,0v21.912a8.361,8.361,0,0,0,.673,3.46,5.553,5.553,0,0,0,1.884,2.345,4.679,4.679,0,0,0,2.748.846Zm8.977-.4a1.48,1.48,0,0,0,.4-1.1V390.385a1.48,1.48,0,0,0-.4-1.1,1.43,1.43,0,0,0-1.057-.4,1.393,1.393,0,0,0-1.5,1.5v18.029a1.393,1.393,0,0,0,1.5,1.5,1.43,1.43,0,0,0,1.057-.4Zm.4-25.237a2.044,2.044,0,0,0,.615-1.5,1.919,1.919,0,0,0-.634-1.519,2.127,2.127,0,0,0-1.441-.557,2.176,2.176,0,0,0-1.48.557,1.92,1.92,0,0,0-.635,1.519,2.04,2.04,0,0,0,.616,1.5,1.991,1.991,0,0,0,1.461.615,2.039,2.039,0,0,0,1.5-.615Zm22.584,24.449a10.236,10.236,0,0,0,3.807-3.805,10.769,10.769,0,0,0,1.4-5.5,11.247,11.247,0,0,0-1.422-5.536,10.1,10.1,0,0,0-3.787-3.805,10.771,10.771,0,0,0-5.477-1.384,10.88,10.88,0,0,0-5.5,1.384,10.053,10.053,0,0,0-3.805,3.805,11.685,11.685,0,0,0,0,11.034,10.045,10.045,0,0,0,3.805,3.805,10.881,10.881,0,0,0,5.5,1.384,10.771,10.771,0,0,0,5.477-1.384Zm-9.475-2.345a7.511,7.511,0,0,1-2.787-2.845,8.224,8.224,0,0,1-1.019-4.113,8.334,8.334,0,0,1,1.019-4.133,7.472,7.472,0,0,1,2.787-2.863,8.213,8.213,0,0,1,8,0,7.352,7.352,0,0,1,2.768,2.863,8.472,8.472,0,0,1,1,4.133,8.359,8.359,0,0,1-1,4.113,7.39,7.39,0,0,1-2.768,2.845,8.22,8.22,0,0,1-8,0Zm29.485,3.536a1.688,1.688,0,0,0,1.153-.4,1.336,1.336,0,0,0,.462-1.057,1.54,1.54,0,0,0-.385-1.077,1.288,1.288,0,0,0-1-.423h-1.038a3.848,3.848,0,0,1-2.96-1.249,4.547,4.547,0,0,1-1.153-3.21V383.7a1.448,1.448,0,0,0-1.5-1.5,1.4,1.4,0,0,0-1.057.423,1.5,1.5,0,0,0-.4,1.076v18.8a7.79,7.79,0,0,0,.923,3.825,6.825,6.825,0,0,0,6.151,3.594Zm-.577-17.683a1.344,1.344,0,0,0,.961-.365,1.2,1.2,0,0,0,.384-.9,1.242,1.242,0,0,0-.384-.942,1.34,1.34,0,0,0-.961-.366h-9.8a1.338,1.338,0,0,0-.961.366,1.237,1.237,0,0,0-.384.942,1.2,1.2,0,0,0,.384.9,1.342,1.342,0,0,0,.961.365Zm20.3,17.165a10.448,10.448,0,0,0,3.23-1.788,1.107,1.107,0,0,0,.443-.923,1.434,1.434,0,0,0-.519-1,1.351,1.351,0,0,0-.923-.289,1.574,1.574,0,0,0-.961.365,6.752,6.752,0,0,1-2.249,1.211,8.561,8.561,0,0,1-2.787.48,7.9,7.9,0,0,1-4.076-1.038,7.508,7.508,0,0,1-2.787-2.844,8.3,8.3,0,0,1-1.018-4.152,9.29,9.29,0,0,1,.9-4.171,6.931,6.931,0,0,1,2.557-2.863,7.073,7.073,0,0,1,3.844-1.038,6.722,6.722,0,0,1,3.71,1,6.6,6.6,0,0,1,2.4,2.768,8.809,8.809,0,0,1,.807,4l1.654-1.192H794.328v2.461h16.338a1.39,1.39,0,0,0,1-.366,1.284,1.284,0,0,0,.384-.98,11.627,11.627,0,0,0-1.192-5.344,8.956,8.956,0,0,0-3.363-3.671,9.576,9.576,0,0,0-5.094-1.327,9.836,9.836,0,0,0-5.229,1.384,9.729,9.729,0,0,0-3.556,3.787,11.577,11.577,0,0,0-1.287,5.555,11.078,11.078,0,0,0,1.364,5.535,9.816,9.816,0,0,0,3.768,3.787,11.18,11.18,0,0,0,9.284.653Zm25.911-1.864a1.039,1.039,0,0,0,.365-.923,1.508,1.508,0,0,0-.519-.961,1.261,1.261,0,0,0-.923-.307,1.7,1.7,0,0,0-.961.422,6.181,6.181,0,0,1-2.21,1.25,8.907,8.907,0,0,1-2.749.4,7.553,7.553,0,0,1-3.959-1.038,7.192,7.192,0,0,1-2.691-2.845,8.621,8.621,0,0,1-.96-4.113,9.168,9.168,0,0,1,.9-4.152,6.991,6.991,0,0,1,2.537-2.844,6.9,6.9,0,0,1,3.786-1.039,7.157,7.157,0,0,1,5.613,2.537,1.523,1.523,0,0,0,.9.558,1.174,1.174,0,0,0,.942-.211,1.519,1.519,0,0,0,.653-.9,1.056,1.056,0,0,0-.307-.98,9.8,9.8,0,0,0-3.479-2.768,10.106,10.106,0,0,0-4.325-.924,9.728,9.728,0,0,0-5.227,1.4,9.977,9.977,0,0,0-3.576,3.825,11.391,11.391,0,0,0-1.307,5.5,10.925,10.925,0,0,0,1.365,5.459,10.176,10.176,0,0,0,3.729,3.825,10.371,10.371,0,0,0,5.4,1.4,9.956,9.956,0,0,0,7-2.576Zm25.6,1.96a1.411,1.411,0,0,0,.423-1.038v-10a10.63,10.63,0,0,0-1.25-5.344,8.328,8.328,0,0,0-3.4-3.325,10.331,10.331,0,0,0-4.882-1.134,9.417,9.417,0,0,0-4.536,1.1,8.755,8.755,0,0,0-3.268,3,8.3,8.3,0,0,0-1.307,4.325h2.114a4.915,4.915,0,0,1,.885-2.884,6.067,6.067,0,0,1,2.4-2,7.759,7.759,0,0,1,3.4-.73,7.851,7.851,0,0,1,3.518.769,5.772,5.772,0,0,1,2.46,2.307,7.656,7.656,0,0,1,.9,3.921v10a1.411,1.411,0,0,0,.423,1.038,1.455,1.455,0,0,0,1.076.423,1.408,1.408,0,0,0,1.038-.423Zm-16.511.019a1.43,1.43,0,0,0,.4-1.057V390.385a1.48,1.48,0,0,0-.4-1.1,1.43,1.43,0,0,0-1.057-.4,1.395,1.395,0,0,0-1.5,1.5v18.068a1.43,1.43,0,0,0,.4,1.057,1.479,1.479,0,0,0,1.095.4,1.43,1.43,0,0,0,1.057-.4Zm0-8.591a1.5,1.5,0,0,0,.4-1.077V381.388a1.479,1.479,0,0,0-.4-1.095,1.43,1.43,0,0,0-1.057-.4,1.395,1.395,0,0,0-1.5,1.5v18.453a1.5,1.5,0,0,0,.4,1.077,1.442,1.442,0,0,0,1.095.422,1.4,1.4,0,0,0,1.057-.422Zm36.77,8.476a10.423,10.423,0,0,0,3.229-1.788,1.111,1.111,0,0,0,.444-.923,1.434,1.434,0,0,0-.519-1,1.355,1.355,0,0,0-.924-.289,1.58,1.58,0,0,0-.961.365,6.762,6.762,0,0,1-2.249,1.211,8.556,8.556,0,0,1-2.787.48,7.9,7.9,0,0,1-4.076-1.038,7.517,7.517,0,0,1-2.787-2.844,8.314,8.314,0,0,1-1.018-4.152,9.29,9.29,0,0,1,.9-4.171,6.938,6.938,0,0,1,2.557-2.863,7.073,7.073,0,0,1,3.844-1.038,6.723,6.723,0,0,1,3.711,1,6.594,6.594,0,0,1,2.4,2.768,8.792,8.792,0,0,1,.807,4l1.655-1.192H866.1v2.461h16.337a1.392,1.392,0,0,0,1-.366,1.288,1.288,0,0,0,.384-.98,11.614,11.614,0,0,0-1.193-5.344,8.942,8.942,0,0,0-3.363-3.671,9.575,9.575,0,0,0-5.094-1.327,9.829,9.829,0,0,0-5.227,1.384,9.724,9.724,0,0,0-3.557,3.787,11.578,11.578,0,0,0-1.287,5.555,11.078,11.078,0,0,0,1.365,5.535,9.813,9.813,0,0,0,3.767,3.787,11.18,11.18,0,0,0,9.284.653Z" transform="translate(-212.822 -300.89)"/><path class="b" d="M678.122,433.083a8.1,8.1,0,0,0,3.128-1.825,1.294,1.294,0,0,0,.233-.369,1.1,1.1,0,0,0,.068-.4.965.965,0,0,0-.274-.713,1.124,1.124,0,0,0-.645-.33.863.863,0,0,0-.7.219,9.521,9.521,0,0,1-2.551,1.427,8.2,8.2,0,0,1-2.853.494,8,8,0,0,1-3.333-.7,8.687,8.687,0,0,1-2.73-1.934,9.213,9.213,0,0,1-1.852-2.853,8.992,8.992,0,0,1-.672-3.484,8.846,8.846,0,0,1,.672-3.429,9.2,9.2,0,0,1,1.852-2.853,8.878,8.878,0,0,1,2.73-1.948,7.876,7.876,0,0,1,3.333-.714,8.675,8.675,0,0,1,2.935.453,7.294,7.294,0,0,1,2.332,1.386,1.053,1.053,0,0,0,.562.246.9.9,0,0,0,.507-.082.5.5,0,0,0,.275-.328.708.708,0,0,0,.328-.343.832.832,0,0,0,.068-.494.71.71,0,0,0-.287-.453,10.246,10.246,0,0,0-3.128-1.838,10.648,10.648,0,0,0-3.593-.576,10.144,10.144,0,0,0-4.184.864,10.887,10.887,0,0,0-5.679,5.871,11.226,11.226,0,0,0,2.3,12.016,10.624,10.624,0,0,0,3.4,2.373,10.217,10.217,0,0,0,4.157.85,12.075,12.075,0,0,0,3.593-.535Zm9.918-.027a1.057,1.057,0,0,0,.287-.781V419.408a1.059,1.059,0,0,0-.287-.782,1.023,1.023,0,0,0-.755-.287.994.994,0,0,0-1.07,1.07v12.867a1,1,0,0,0,1.07,1.07,1.02,1.02,0,0,0,.755-.289Zm.287-18.01a1.452,1.452,0,0,0,.439-1.07,1.365,1.365,0,0,0-.453-1.083,1.511,1.511,0,0,0-1.029-.4,1.548,1.548,0,0,0-1.056.4,1.366,1.366,0,0,0-.453,1.083,1.452,1.452,0,0,0,.439,1.07,1.42,1.42,0,0,0,1.042.439,1.452,1.452,0,0,0,1.07-.439Zm11.55,17.584,6.007-12.948a.845.845,0,0,0,.027-.7,1.008,1.008,0,0,0-.521-.562,1.1,1.1,0,0,0-.781-.041.86.86,0,0,0-.562.507l-5.761,12.647h1.124l-5.843-12.647a1.037,1.037,0,0,0-.549-.494.888.888,0,0,0-.741.055,1.008,1.008,0,0,0-.549.549.886.886,0,0,0,.027.714l6.091,12.92a1.054,1.054,0,0,0,.987.714,1.089,1.089,0,0,0,1.042-.714Zm11.261.425a1.057,1.057,0,0,0,.289-.781V419.408a1.06,1.06,0,0,0-.289-.782,1.021,1.021,0,0,0-.755-.287.994.994,0,0,0-1.07,1.07v12.867a1,1,0,0,0,1.07,1.07,1.018,1.018,0,0,0,.755-.289Zm.289-18.01a1.457,1.457,0,0,0,.439-1.07,1.369,1.369,0,0,0-.453-1.083,1.516,1.516,0,0,0-1.03-.4,1.548,1.548,0,0,0-1.056.4,1.369,1.369,0,0,0-.453,1.083,1.452,1.452,0,0,0,.439,1.07,1.423,1.423,0,0,0,1.043.439,1.456,1.456,0,0,0,1.07-.439Zm17.063,16.6a.742.742,0,0,0,.26-.658,1.076,1.076,0,0,0-.371-.686.9.9,0,0,0-.658-.219,1.21,1.21,0,0,0-.685.3,4.428,4.428,0,0,1-1.578.892,6.363,6.363,0,0,1-1.961.287,5.386,5.386,0,0,1-2.826-.74,5.134,5.134,0,0,1-1.92-2.03,6.155,6.155,0,0,1-.685-2.936,6.539,6.539,0,0,1,.644-2.963,5,5,0,0,1,1.811-2.03,4.932,4.932,0,0,1,2.7-.741,5.107,5.107,0,0,1,4.005,1.811,1.083,1.083,0,0,0,.644.4.842.842,0,0,0,.673-.151,1.087,1.087,0,0,0,.466-.645.754.754,0,0,0-.22-.7,6.986,6.986,0,0,0-2.482-1.975,7.213,7.213,0,0,0-3.086-.658,6.948,6.948,0,0,0-3.731,1,7.13,7.13,0,0,0-2.551,2.73,8.122,8.122,0,0,0-.933,3.923,7.783,7.783,0,0,0,.974,3.9,7.254,7.254,0,0,0,2.66,2.73,7.4,7.4,0,0,0,3.854,1,7.1,7.1,0,0,0,4.994-1.838Zm18.27,1.4a1,1,0,0,0,.3-.74v-7.133a7.592,7.592,0,0,0-.892-3.813,5.943,5.943,0,0,0-2.428-2.373,7.364,7.364,0,0,0-3.484-.81,6.725,6.725,0,0,0-3.237.782,6.242,6.242,0,0,0-2.332,2.14,5.912,5.912,0,0,0-.933,3.086h1.509a3.508,3.508,0,0,1,.632-2.057,4.324,4.324,0,0,1,1.714-1.427,5.527,5.527,0,0,1,2.428-.521,5.6,5.6,0,0,1,2.511.548,4.122,4.122,0,0,1,1.755,1.646,5.464,5.464,0,0,1,.646,2.8V432.3a1,1,0,0,0,.3.74,1.038,1.038,0,0,0,.769.3,1,1,0,0,0,.74-.3Zm-11.782.014a1.019,1.019,0,0,0,.287-.754V419.408a1.06,1.06,0,0,0-.287-.782,1.024,1.024,0,0,0-.755-.287.994.994,0,0,0-1.07,1.07V432.3a1.015,1.015,0,0,0,.288.754,1.053,1.053,0,0,0,.781.289,1.02,1.02,0,0,0,.755-.289Zm0-6.131a1.071,1.071,0,0,0,.287-.769V412.989a1.058,1.058,0,0,0-.287-.782,1.024,1.024,0,0,0-.755-.288,1,1,0,0,0-1.07,1.071v13.168a1.066,1.066,0,0,0,.288.769,1.03,1.03,0,0,0,.781.3,1,1,0,0,0,.755-.3Zm26.239,6.048a7.42,7.42,0,0,0,2.3-1.276.79.79,0,0,0,.315-.658,1.017,1.017,0,0,0-.369-.713.962.962,0,0,0-.659-.206,1.118,1.118,0,0,0-.685.261,4.829,4.829,0,0,1-1.606.864,6.116,6.116,0,0,1-1.989.342,5.639,5.639,0,0,1-2.908-.74,5.362,5.362,0,0,1-1.989-2.03,5.931,5.931,0,0,1-.726-2.964,6.626,6.626,0,0,1,.644-2.976,4.95,4.95,0,0,1,1.825-2.043,5.045,5.045,0,0,1,2.742-.741,4.8,4.8,0,0,1,2.648.714,4.7,4.7,0,0,1,1.715,1.975,6.3,6.3,0,0,1,.576,2.853l1.179-.851H752.355v1.756h11.659a.989.989,0,0,0,.713-.261.92.92,0,0,0,.275-.7,8.3,8.3,0,0,0-.851-3.813,6.394,6.394,0,0,0-2.4-2.619,6.831,6.831,0,0,0-3.635-.947,7.008,7.008,0,0,0-3.73.988,6.933,6.933,0,0,0-2.537,2.7,8.256,8.256,0,0,0-.919,3.964,7.905,7.905,0,0,0,.974,3.951,7,7,0,0,0,2.688,2.7,7.983,7.983,0,0,0,6.625.466Zm22.66.055a1.053,1.053,0,0,0,.3-.754V411.918h-2.139v20.356a1.076,1.076,0,0,0,1.838.754Zm6.831-19.163a.965.965,0,0,0,.713-.274.932.932,0,0,0,.275-.685.942.942,0,0,0-.988-.989h-15.17a.942.942,0,0,0-.989.989.928.928,0,0,0,.275.685.966.966,0,0,0,.714.274ZM801.2,432.493a7.3,7.3,0,0,0,2.715-2.715,7.678,7.678,0,0,0,1-3.924,8.014,8.014,0,0,0-1.015-3.95,7.2,7.2,0,0,0-2.7-2.715,8.26,8.26,0,0,0-7.833,0,7.169,7.169,0,0,0-2.715,2.715,8.342,8.342,0,0,0,0,7.874,7.169,7.169,0,0,0,2.715,2.715,8.26,8.26,0,0,0,7.833,0Zm-6.762-1.673a5.354,5.354,0,0,1-1.989-2.03,5.875,5.875,0,0,1-.727-2.936,5.951,5.951,0,0,1,.727-2.949,5.335,5.335,0,0,1,1.989-2.043,5.862,5.862,0,0,1,5.706,0,5.259,5.259,0,0,1,1.975,2.043,6.04,6.04,0,0,1,.713,2.949,5.963,5.963,0,0,1-.713,2.936,5.277,5.277,0,0,1-1.975,2.03,5.869,5.869,0,0,1-5.706,0Zm16.679-6.721a3.6,3.6,0,0,1,.7-2.223,4.143,4.143,0,0,1,1.893-1.386,6.1,6.1,0,0,1,2.73-.315q.465.027.837.055a1.146,1.146,0,0,0,.631-.111.812.812,0,0,0,.371-.548.863.863,0,0,0-.521-1.042,4.312,4.312,0,0,0-1.948-.357,5.589,5.589,0,0,0-2.894.769,6,6,0,0,0-2.113,2.112,6.423,6.423,0,0,0-.892,3.046Zm-.275,8.97a1.039,1.039,0,0,0,.275-.767V419.38a1.044,1.044,0,1,0-2.085,0V432.3a1.087,1.087,0,0,0,1.81.767Zm13.017-.014a1.053,1.053,0,0,0,.288-.781V419.408a1.056,1.056,0,0,0-.288-.782,1.021,1.021,0,0,0-.754-.287.994.994,0,0,0-1.071,1.07v12.867a1,1,0,0,0,1.071,1.07,1.017,1.017,0,0,0,.754-.289Zm.288-18.01a1.457,1.457,0,0,0,.439-1.07,1.369,1.369,0,0,0-.453-1.083,1.515,1.515,0,0,0-1.029-.4,1.551,1.551,0,0,0-1.057.4,1.369,1.369,0,0,0-.453,1.083,1.457,1.457,0,0,0,.439,1.07,1.424,1.424,0,0,0,1.042.439,1.457,1.457,0,0,0,1.071-.439Zm18.983,18a1,1,0,0,0,.3-.74v-7.133a7.591,7.591,0,0,0-.892-3.813,5.943,5.943,0,0,0-2.428-2.373,7.36,7.36,0,0,0-3.484-.81,6.726,6.726,0,0,0-3.237.782,6.24,6.24,0,0,0-2.331,2.14,5.9,5.9,0,0,0-.933,3.086h1.509a3.507,3.507,0,0,1,.631-2.057,4.319,4.319,0,0,1,1.715-1.427,5.523,5.523,0,0,1,2.428-.521,5.59,5.59,0,0,1,2.51.548,4.119,4.119,0,0,1,1.756,1.646,5.477,5.477,0,0,1,.644,2.8V432.3a1,1,0,0,0,.3.74,1.035,1.035,0,0,0,.767.3,1.008,1.008,0,0,0,.741-.3Zm-11.783.014a1.015,1.015,0,0,0,.289-.754V419.408a1.056,1.056,0,0,0-.289-.782,1.02,1.02,0,0,0-.754-.287.992.992,0,0,0-1.07,1.07V432.3a1.019,1.019,0,0,0,.287.754,1.056,1.056,0,0,0,.782.289,1.017,1.017,0,0,0,.754-.289Zm26.24-.082a7.419,7.419,0,0,0,2.3-1.276.791.791,0,0,0,.316-.658,1.023,1.023,0,0,0-.371-.713.961.961,0,0,0-.658-.206,1.122,1.122,0,0,0-.687.261,4.834,4.834,0,0,1-1.6.864,6.127,6.127,0,0,1-1.989.342,5.633,5.633,0,0,1-2.908-.74,5.366,5.366,0,0,1-1.99-2.03,5.931,5.931,0,0,1-.726-2.964,6.625,6.625,0,0,1,.644-2.976,4.957,4.957,0,0,1,1.825-2.043,5.053,5.053,0,0,1,2.744-.741,4.791,4.791,0,0,1,2.647.714,4.693,4.693,0,0,1,1.715,1.975,6.287,6.287,0,0,1,.576,2.853l1.18-.851H848.727v1.756h11.659a.994.994,0,0,0,.714-.261.92.92,0,0,0,.274-.7,8.3,8.3,0,0,0-.851-3.813,6.393,6.393,0,0,0-2.4-2.619,6.829,6.829,0,0,0-3.634-.947,7.012,7.012,0,0,0-3.731.988,6.942,6.942,0,0,0-2.537,2.7,8.256,8.256,0,0,0-.919,3.964,7.905,7.905,0,0,0,.974,3.951,7,7,0,0,0,2.688,2.7,7.983,7.983,0,0,0,6.625.466Zm15.651-.041a4.966,4.966,0,0,0,2.085-1.522,3.591,3.591,0,0,0,.755-2.264,3.644,3.644,0,0,0-.508-1.879,4.217,4.217,0,0,0-1.7-1.509,10.459,10.459,0,0,0-3.251-.974,10.584,10.584,0,0,1-2.346-.6,2.773,2.773,0,0,1-1.179-.823,1.8,1.8,0,0,1-.343-1.1,1.827,1.827,0,0,1,.905-1.55,4.215,4.215,0,0,1,2.414-.618,5.479,5.479,0,0,1,2.085.371,4.179,4.179,0,0,1,1.592,1.167,1.219,1.219,0,0,0,.726.4,1.1,1.1,0,0,0,.755-.123.891.891,0,0,0,.439-.631.966.966,0,0,0-.22-.741,5.8,5.8,0,0,0-2.153-1.7,7.339,7.339,0,0,0-3.169-.631,7.612,7.612,0,0,0-2.715.466,4.464,4.464,0,0,0-1.975,1.4,3.628,3.628,0,0,0-.741,2.332,3.323,3.323,0,0,0,1.29,2.607,8.27,8.27,0,0,0,4.06,1.536,7.913,7.913,0,0,1,3.072,1,1.924,1.924,0,0,1,.933,1.632,2.155,2.155,0,0,1-.933,1.688,4.843,4.843,0,0,1-2.935.7,6.7,6.7,0,0,1-2.4-.412,4.2,4.2,0,0,1-1.741-1.179,1.1,1.1,0,0,0-.686-.357,1.089,1.089,0,0,0-.795.22,1.1,1.1,0,0,0-.412.713.881.881,0,0,0,.246.741,6.044,6.044,0,0,0,2.58,1.646,9.775,9.775,0,0,0,3.209.548,7.968,7.968,0,0,0,3.06-.548Zm8.751.123a1.057,1.057,0,0,0,.287-.781V419.408a1.06,1.06,0,0,0-.287-.782,1.024,1.024,0,0,0-.755-.287.992.992,0,0,0-1.07,1.07v12.867a.994.994,0,0,0,1.07,1.07,1.02,1.02,0,0,0,.755-.289Zm.287-18.01a1.456,1.456,0,0,0,.438-1.07,1.369,1.369,0,0,0-.451-1.083,1.514,1.514,0,0,0-1.029-.4,1.553,1.553,0,0,0-1.057.4,1.372,1.372,0,0,0-.452,1.083,1.448,1.448,0,0,0,.439,1.07,1.42,1.42,0,0,0,1.041.439,1.453,1.453,0,0,0,1.071-.439Z" transform="translate(-213.037 -296.433)"/></g></svg>