<?xml version="1.0" encoding="utf-8"?>
<!-- Generator: Adobe Illustrator 24.3.0, SVG Export Plug-In . SVG Version: 6.00 Build 0)  -->
<svg version="1.1" id="Livello_1" xmlns="http://www.w3.org/2000/svg" xmlns:xlink="http://www.w3.org/1999/xlink" x="0px" y="0px"
	 viewBox="0 0 647 125" style="enable-background:new 0 0 647 125;" xml:space="preserve">
<style type="text/css">
	.st0{fill:#5F8FB4;}
	.st1{fill:#22326E;}
</style>
<g>
	<g>
		<g>
			<path class="st0" d="M281.33,36.27c3.73,0,6.79,0.97,9.13,2.92c2.36,1.95,3.53,4.38,3.53,7.3c0,1.87-0.49,3.52-1.47,4.93
				c-0.98,1.42-2.41,2.55-4.28,3.39v0.35c2.85,0.64,5.05,1.91,6.64,3.81c1.59,1.9,2.38,4.13,2.38,6.67c0,2.26-0.58,4.28-1.73,6.06
				c-1.15,1.78-2.77,3.12-4.82,4.01c-2.06,0.9-4.48,1.35-7.26,1.35h-17.08V36.27H281.33z M279.23,53.21c2.07,0,3.73-0.5,4.93-1.49
				c1.19-1,1.8-2.38,1.8-4.15c0-1.57-0.55-2.83-1.65-3.75c-1.12-0.93-2.57-1.38-4.38-1.38h-5.67v10.78h4.97V53.21z M281.06,70.9
				c2.66,0,4.67-0.5,6.04-1.5s2.05-2.47,2.05-4.42c0-1.73-0.68-3.1-2.03-4.1s-3.16-1.5-5.45-1.5h-7.42v11.53L281.06,70.9
				L281.06,70.9z"/>
			<path class="st0" d="M311.99,36.27v40.79h-7.89V36.27H311.99z"/>
			<path class="st0" d="M336.11,36.27c3.73,0,6.79,0.97,9.13,2.92c2.36,1.95,3.53,4.38,3.53,7.3c0,1.87-0.49,3.52-1.47,4.93
				c-0.98,1.42-2.41,2.55-4.28,3.39v0.35c2.85,0.64,5.05,1.91,6.64,3.81c1.59,1.9,2.38,4.13,2.38,6.67c0,2.26-0.58,4.28-1.73,6.06
				c-1.15,1.78-2.77,3.12-4.82,4.01c-2.06,0.9-4.48,1.35-7.26,1.35h-17.08V36.27H336.11z M334.01,53.21c2.07,0,3.73-0.5,4.93-1.49
				c1.19-1,1.8-2.38,1.8-4.15c0-1.57-0.55-2.83-1.65-3.75c-1.12-0.93-2.57-1.38-4.38-1.38h-5.67v10.78h4.97V53.21z M335.85,70.9
				c2.66,0,4.67-0.5,6.04-1.5c1.36-1,2.05-2.47,2.05-4.42c0-1.73-0.68-3.1-2.03-4.1s-3.16-1.5-5.45-1.5h-7.42v11.53L335.85,70.9
				L335.85,70.9z"/>
			<path class="st0" d="M366.58,36.27V70.9h19.81v6.16h-27.68V36.27H366.58z"/>
			<path class="st0" d="M399.84,36.27v40.79h-7.89V36.27H399.84z"/>
			<path class="st0" d="M429.92,35.74c4.21,0,8.02,0.87,11.39,2.61c3.39,1.75,6.08,4.25,8.08,7.53c1.99,3.28,3.01,6.88,3.01,10.79
				c0,3.82-0.98,7.36-2.94,10.62s-4.65,5.79-8.06,7.59c-3.41,1.8-7.27,2.7-11.55,2.7c-4.23,0-8.06-0.91-11.52-2.74
				c-3.45-1.83-6.14-4.34-8.07-7.55c-1.93-3.2-2.89-6.74-2.89-10.62c0-3.73,0.96-7.25,2.89-10.54s4.59-5.85,7.98-7.66
				C421.63,36.66,425.51,35.74,429.92,35.74z M415.53,56.68c0,2.71,0.6,5.14,1.84,7.3c1.22,2.16,2.93,3.83,5.12,5.02
				s4.67,1.78,7.44,1.78c4.17,0,7.63-1.31,10.32-3.94s4.04-6.02,4.04-10.17c0-2.7-0.6-5.14-1.82-7.31
				c-1.22-2.17-2.93-3.85-5.13-5.04c-2.22-1.19-4.7-1.78-7.47-1.78s-5.25,0.6-7.45,1.79c-2.22,1.2-3.91,2.87-5.11,5.03
				C416.12,51.51,415.53,53.95,415.53,56.68z"/>
			<path class="st0" d="M487.65,36.27v6.16h-14.48v34.63h-7.89V42.43h-14.49v-6.16H487.65z"/>
			<path class="st0" d="M517.02,36.27v6.16h-18.49v10.72h17.71v6.16h-17.71V70.9h18.9v6.16h-26.77V36.27H517.02z"/>
			<path class="st0" d="M546.18,35.74c2.32,0,4.59,0.26,6.81,0.79c2.22,0.52,4.61,1.42,7.18,2.68v7.42
				c-2.51-1.44-4.83-2.49-6.97-3.13c-2.13-0.64-4.34-0.96-6.67-0.96c-2.9,0-5.51,0.6-7.85,1.79c-2.34,1.2-4.16,2.89-5.45,5.07
				c-1.3,2.19-1.94,4.61-1.94,7.27c0,2.73,0.64,5.17,1.93,7.33c1.27,2.16,3.08,3.83,5.42,5.01c2.34,1.18,4.97,1.77,7.89,1.77
				c2.24,0,4.37-0.32,6.4-0.96c2.03-0.64,4.61-1.8,7.7-3.48v7.42c-2.65,1.38-5.08,2.37-7.31,2.95c-2.22,0.58-4.8,0.87-7.76,0.87
				c-4.3,0-8.15-0.85-11.54-2.57c-3.39-1.71-6.05-4.18-7.99-7.4c-1.93-3.22-2.9-6.75-2.9-10.59c0-4.11,1-7.8,2.99-11.07
				c1.99-3.27,4.74-5.79,8.23-7.56C537.87,36.63,541.81,35.74,546.18,35.74z"/>
			<path class="st0" d="M576.03,36.27v17.17h21.17V36.27h7.89v40.79h-7.89V59.83h-21.17v17.23h-7.87V36.27H576.03z"/>
			<path class="st0" d="M640.44,36.27v6.16h-18.49v10.72h17.71v6.16h-17.71V70.9h18.9v6.16h-26.77V36.27H640.44z"/>
			<path class="st0" d="M281.81,88c1.67,0,3.29,0.19,4.9,0.56c1.6,0.38,3.32,1.02,5.17,1.94v5.34c-1.81-1.04-3.48-1.79-5.01-2.25
				c-1.54-0.47-3.14-0.7-4.8-0.7c-2.09,0-3.98,0.43-5.66,1.29c-1.68,0.87-2.99,2.08-3.92,3.65s-1.39,3.31-1.39,5.24
				c0,1.96,0.46,3.72,1.39,5.28c0.92,1.56,2.22,2.76,3.91,3.6c1.68,0.85,3.57,1.27,5.67,1.27c1.61,0,3.15-0.23,4.62-0.7
				c1.46-0.46,3.31-1.29,5.54-2.5v5.34c-1.9,1-3.66,1.7-5.26,2.13c-1.59,0.42-3.45,0.63-5.59,0.63c-3.1,0-5.87-0.62-8.31-1.85
				c-2.43-1.23-4.34-3.01-5.75-5.33c-1.39-2.32-2.09-4.86-2.09-7.63c0-2.95,0.72-5.61,2.15-7.97c1.44-2.36,3.41-4.17,5.93-5.45
				C275.83,88.64,278.66,88,281.81,88z"/>
			<path class="st0" d="M303.43,88.37v29.37h-5.68V88.37H303.43z"/>
			<path class="st0" d="M313,88.37l8.29,18.86l8.1-18.86h5.95l-12.97,29.75h-1.98L307,88.37H313z"/>
			<path class="st0" d="M344.59,88.37v29.37h-5.68V88.37H344.59z"/>
			<path class="st0" d="M366.6,88c1.67,0,3.29,0.19,4.9,0.56c1.6,0.38,3.32,1.02,5.17,1.94v5.34c-1.81-1.04-3.48-1.79-5.01-2.25
				c-1.54-0.47-3.14-0.7-4.8-0.7c-2.09,0-3.98,0.43-5.66,1.29c-1.68,0.87-2.99,2.08-3.92,3.65s-1.39,3.31-1.39,5.24
				c0,1.96,0.46,3.72,1.39,5.28c0.92,1.56,2.22,2.76,3.91,3.6c1.68,0.85,3.57,1.27,5.67,1.27c1.61,0,3.15-0.23,4.62-0.7
				c1.46-0.46,3.31-1.29,5.54-2.5v5.34c-1.9,1-3.66,1.7-5.26,2.13c-1.59,0.42-3.45,0.63-5.59,0.63c-3.1,0-5.87-0.62-8.31-1.85
				c-2.43-1.23-4.34-3.01-5.75-5.33c-1.39-2.32-2.09-4.86-2.09-7.63c0-2.95,0.72-5.61,2.15-7.97c1.44-2.36,3.41-4.17,5.93-5.45
				C360.61,88.64,363.45,88,366.6,88z"/>
			<path class="st0" d="M388.08,88.37v12.36h15.25V88.37H409v29.37h-5.67v-12.4h-15.25v12.4h-5.67V88.37H388.08z"/>
			<path class="st0" d="M434.47,88.37v4.44h-13.31v7.72h12.74v4.44h-12.74v8.35h13.61v4.44h-19.28V88.37H434.47z"/>
			<path class="st0" d="M473.38,88.37v4.44h-10.42v24.94h-5.68V92.81h-10.42v-4.44H473.38z"/>
			<path class="st0" d="M491.02,88c3.03,0,5.77,0.62,8.2,1.88c2.43,1.25,4.37,3.06,5.81,5.42c1.44,2.36,2.17,4.95,2.17,7.77
				c0,2.74-0.71,5.3-2.11,7.64c-1.4,2.35-3.35,4.17-5.8,5.47s-5.24,1.95-8.32,1.95c-3.03,0-5.8-0.66-8.29-1.98
				c-2.48-1.32-4.42-3.13-5.8-5.44c-1.39-2.3-2.09-4.85-2.09-7.64c0-2.69,0.7-5.22,2.09-7.59c1.38-2.37,3.29-4.21,5.74-5.52
				C485.05,88.66,487.84,88,491.02,88z M480.65,103.07c0,1.95,0.45,3.7,1.33,5.26s2.11,2.76,3.69,3.62
				c1.57,0.85,3.36,1.28,5.35,1.28c3.01,0,5.49-0.94,7.43-2.83c1.94-1.9,2.91-4.33,2.91-7.32c0-1.95-0.45-3.71-1.31-5.27
				c-0.88-1.56-2.11-2.77-3.7-3.62c-1.6-0.86-3.39-1.29-5.38-1.29c-1.98,0-3.78,0.43-5.37,1.29c-1.59,0.87-2.81,2.07-3.66,3.62
				C481.07,99.35,480.65,101.11,480.65,103.07z"/>
			<path class="st0" d="M523.1,88.37c2.77,0,5.01,0.77,6.76,2.3c1.73,1.52,2.6,3.52,2.6,5.97c0,1.67-0.43,3.12-1.29,4.36
				c-0.87,1.24-2.14,2.22-3.85,2.93c0.95,0.51,1.77,1.19,2.51,2.06c0.73,0.87,1.63,2.34,2.72,4.4c1.78,3.56,3.12,6.01,3.99,7.36
				h-6.33c-0.43-0.64-1.02-1.67-1.77-3.09c-1.63-3.12-2.81-5.23-3.57-6.32c-0.76-1.08-1.48-1.86-2.19-2.31
				c-0.7-0.45-1.5-0.68-2.41-0.68h-2.06v12.4h-5.67V88.37H523.1z M521.82,100.91c1.48,0,2.65-0.37,3.49-1.12
				c0.85-0.74,1.27-1.76,1.27-3.04c0-1.35-0.42-2.36-1.26-3.02c-0.84-0.67-2.03-1-3.6-1h-3.53v8.18H521.82z"/>
			<path class="st0" d="M546.06,88.37v29.37h-5.68V88.37H546.06z"/>
			<path class="st0" d="M557.64,88.37l17.46,20.5v-20.5h5.55v29.37h-4.88L558.22,96.9v20.84h-5.55V88.37H557.64z"/>
			<path class="st0" d="M606.07,88.37v4.44h-13.31v7.72h12.74v4.44h-12.74v8.35h13.61v4.44h-19.28V88.37H606.07z"/>
			<path class="st0" d="M620.18,88c2.86,0,5.62,0.72,8.27,2.15v5.04c-3.04-1.83-5.74-2.75-8.1-2.75c-1.43,0-2.55,0.28-3.35,0.83
				c-0.81,0.56-1.21,1.29-1.21,2.22c0,1.11,0.75,2.13,2.24,3.07c0.42,0.28,2.03,1.06,4.86,2.36c2.41,1.14,4.15,2.4,5.21,3.79
				c1.06,1.38,1.6,3.05,1.6,5c0,2.52-0.91,4.56-2.72,6.11c-1.82,1.55-4.17,2.32-7.06,2.32c-1.88,0-3.49-0.21-4.84-0.62
				c-1.35-0.41-2.87-1.12-4.55-2.13v-5.59c3.14,2.61,6.1,3.91,8.87,3.91c1.39,0,2.51-0.3,3.36-0.91c0.87-0.6,1.29-1.4,1.29-2.4
				c0-1.36-0.73-2.47-2.23-3.32c-1.23-0.68-2.82-1.48-4.76-2.42c-2.31-1.05-4.04-2.28-5.18-3.68c-1.14-1.4-1.72-3.03-1.72-4.88
				c0-2.47,0.92-4.43,2.76-5.89C614.75,88.73,617.17,88,620.18,88z"/>
			<path class="st0" d="M640.47,88.37v29.37h-5.68V88.37H640.47z"/>
		</g>
	</g>
	<g>
		<g>
			<circle class="st0" cx="43.68" cy="66.54" r="8.17"/>
			<circle class="st0" cx="43.68" cy="87.35" r="8.17"/>
		</g>
		<g>
			<circle class="st0" cx="110.49" cy="66.54" r="8.17"/>
			<circle class="st0" cx="131.3" cy="66.54" r="8.17"/>
		</g>
		<g>
			<path class="st1" d="M190.57,52.1V35.95h-25.06V3h-16.15v32.98h-14.3l-0.01,0.04h-24.68c-5.68,0-10.98,1.06-15.88,3.18
				c-4.9,2.12-9.19,5.02-12.88,8.71c-1.64,1.64-3.12,3.42-4.45,5.3c-1.33-1.88-2.81-3.65-4.45-5.3c-3.69-3.69-7.98-6.59-12.88-8.71
				c-4.9-2.12-10.19-3.18-15.88-3.18H19.27V3H3.12v73.67c0,5.57,1.06,10.83,3.18,15.79c2.11,4.96,5.05,9.32,8.8,13.06
				c3.75,3.75,8.1,6.69,13.06,8.8c4.96,2.12,10.22,3.18,15.79,3.18c5.68,0,10.98-1.06,15.88-3.18c4.9-2.12,9.19-5.05,12.88-8.8
				c1.64-1.67,3.12-3.47,4.45-5.38c1.33,1.91,2.81,3.71,4.45,5.38c3.69,3.75,7.98,6.69,12.88,8.8c4.9,2.12,10.19,3.18,15.88,3.18
				c5.57,0,10.83-1.06,15.79-3.18c4.96-2.12,9.32-5.05,13.06-8.8c2.04-2.04,3.84-4.27,5.4-6.68l-11.81-11.81
				c-1.24,2.71-2.88,5.1-4.93,7.15c-2.24,2.24-4.87,3.99-7.89,5.26c-3.02,1.27-6.23,1.91-9.62,1.91s-6.56-0.64-9.53-1.91
				c-2.96-1.27-5.56-3.02-7.8-5.26c-2.24-2.24-3.99-4.87-5.26-7.89c-1.27-3.02-1.91-6.23-1.91-9.62c0-3.39,0.64-6.56,1.91-9.53
				c1.27-2.96,3.03-5.56,5.26-7.8c2.24-2.24,4.84-3.99,7.8-5.26c2.97-1.27,6.14-1.91,9.53-1.91h24.62v-0.02h14.35v24.16
				c0,5.57,1.06,10.83,3.18,15.79c2.11,4.96,5.05,9.32,8.8,13.06c3.75,3.75,8.1,6.69,13.06,8.8c2.86,1.22,5.82,2.09,8.89,2.61
				v-16.53c-0.92-0.26-1.83-0.58-2.72-0.95c-3.03-1.27-5.66-3.02-7.89-5.26c-2.24-2.24-3.99-4.87-5.26-7.89
				c-1.27-3.02-1.91-6.23-1.91-9.62V52.11L190.57,52.1L190.57,52.1z M66.55,86.28c-1.27,3.03-3.03,5.66-5.26,7.89
				c-2.24,2.24-4.84,3.99-7.8,5.26c-2.97,1.27-6.14,1.91-9.53,1.91s-6.59-0.64-9.62-1.91s-5.66-3.02-7.89-5.26
				c-2.24-2.24-3.99-4.87-5.26-7.89c-1.27-3.02-1.91-6.23-1.91-9.62v-24.5h24.68c3.39,0,6.56,0.64,9.53,1.91
				c2.96,1.27,5.56,3.03,7.8,5.26c2.24,2.24,3.99,4.84,5.26,7.8c1.27,2.97,1.91,6.14,1.91,9.53C68.46,80.05,67.82,83.26,66.55,86.28
				z"/>
		</g>
		<g>
			<circle class="st0" cx="198.56" cy="108.16" r="8.17"/>
			<circle class="st0" cx="198.75" cy="87.35" r="8.17"/>
			<circle class="st0" cx="219.37" cy="87.35" r="8.17"/>
			<circle class="st0" cx="219.56" cy="66.54" r="8.17"/>
		</g>
	</g>
</g>
</svg>
